<?xml version="1.0" encoding="UTF-8"?>
<svg id="Layer_2" data-name="Layer 2" xmlns="http://www.w3.org/2000/svg" viewBox="0 0 1451.98 1020.57">
  <g id="Layer_1-2" data-name="Layer 1">
    <g>
      <path d="M324.67,216.12c-11.96,21.56-30.32,38.96-55.07,52.19-24.76,13.24-55.5,19.85-92.21,19.85h-67.88v223.33H0V3.66C0,1.64,1.64,0,3.66,0h173.72c35.86,0,66.17,6.19,90.93,18.57,24.75,12.39,43.33,29.46,55.71,51.23,12.38,21.77,18.57,46.75,18.57,74.92,0,26.05-5.98,49.85-17.93,71.4ZM215.8,186.35c10.25-9.82,15.37-23.69,15.37-41.62s-5.12-31.8-15.37-41.62c-10.25-9.82-25.83-14.73-46.75-14.73h-59.55v112.71h59.55c20.91,0,36.5-4.9,46.75-14.73Z"/>
      <path d="M363.86,173.54c13.87-27.75,32.76-49.09,56.67-64.04,23.9-14.94,50.59-22.41,80.05-22.41,25.19,0,47.28,5.12,66.28,15.37,18.99,10.25,33.62,23.69,43.87,40.34v-50.59h105.84c2.02,0,3.66,1.64,3.66,3.66v353.67h-109.5v-50.59c-10.68,16.65-25.51,30.1-44.51,40.34-19,10.25-41.09,15.37-66.28,15.37-29.04,0-55.5-7.57-79.41-22.73-23.91-15.15-42.8-36.71-56.67-64.68-13.88-27.96-20.81-60.29-20.81-97.02s6.93-68.94,20.81-96.7ZM587.99,206.2c-15.16-15.79-33.62-23.69-55.39-23.69s-40.24,7.79-55.39,23.37c-15.16,15.59-22.73,37.04-22.73,64.36s7.57,48.99,22.73,65c15.15,16.01,33.62,24.01,55.39,24.01s40.23-7.89,55.39-23.69c15.15-15.79,22.73-37.35,22.73-64.68s-7.58-48.88-22.73-64.68Z"/>
      <path d="M821.49,438.65c-24.33-10.67-43.54-25.29-57.63-43.86-14.09-18.57-21.99-39.38-23.69-62.44h108.22c1.28,12.39,7.04,22.41,17.29,30.1,10.25,7.68,22.83,11.53,37.78,11.53,13.66,0,24.22-2.66,31.7-8,7.47-5.33,11.21-12.27,11.21-20.81,0-10.25-5.34-17.82-16.01-22.73-10.68-4.9-27.97-10.35-51.87-16.33-25.61-5.97-46.97-12.27-64.04-18.89-17.08-6.61-31.81-17.07-44.19-31.38-12.39-14.3-18.57-33.62-18.57-57.95,0-20.49,5.65-39.16,16.97-56.03,11.31-16.86,27.96-30.2,49.95-40.02,21.98-9.82,48.13-14.73,78.45-14.73,44.83,0,80.15,11.11,105.98,33.3,24.86,21.37,39.54,49.46,44.03,84.28.28,2.17-1.45,4.09-3.64,4.09h-97.06c-1.71-12.38-7.15-22.19-16.33-29.46-9.18-7.25-21.24-10.89-36.18-10.89-12.81,0-22.63,2.46-29.46,7.36-6.83,4.91-10.25,11.64-10.25,20.17,0,10.25,5.44,17.93,16.33,23.05,10.89,5.12,27.86,10.25,50.91,15.37,26.47,6.83,48.03,13.56,64.68,20.17,16.65,6.62,31.27,17.29,43.87,32.02,12.59,14.73,19.1,34.48,19.53,59.23,0,20.92-5.87,39.6-17.61,56.03-11.75,16.44-28.61,29.36-50.59,38.74-21.99,9.38-47.5,14.09-76.52,14.09-31.17,0-58.91-5.33-83.25-16.01Z"/>
      <path d="M1095.61,173.54c13.87-27.75,32.76-49.09,56.67-64.04,23.9-14.94,50.59-22.41,80.05-22.41,25.18,0,47.28,5.12,66.28,15.37,15.78,8.51,28.54,19.23,38.29,32.17,1.8,2.38,5.58,1.15,5.58-1.84v-37.47c0-1.71,1.39-3.1,3.1-3.1h102.75c2.02,0,3.66,1.64,3.66,3.66v350.57c0,1.71-1.39,3.1-3.1,3.1h-103.31c-1.71,0-3.1-1.39-3.1-3.1v-37.73c0-2.96-3.74-4.22-5.55-1.87-10.07,13.06-23.06,23.88-38.96,32.46-19,10.25-41.1,15.37-66.28,15.37-29.04,0-55.5-7.57-79.4-22.73-23.91-15.15-42.81-36.71-56.67-64.68-13.88-27.96-20.81-60.29-20.81-97.02s6.93-68.94,20.81-96.7ZM1319.74,206.2c-15.16-15.79-33.62-23.69-55.39-23.69s-40.24,7.79-55.39,23.37c-15.16,15.59-22.73,37.04-22.73,64.36s7.57,48.99,22.73,65c15.15,16.01,33.62,24.01,55.39,24.01s40.23-7.89,55.39-23.69c15.15-15.79,22.73-37.35,22.73-64.68s-7.58-48.88-22.73-64.68Z"/>
      <path d="M302.3,331.16c2.04,0,3.69,1.65,3.69,3.69v384.74c0,47.39-13.35,83.89-40.02,109.5-26.69,25.61-62.66,38.42-107.91,38.42s-85.39-13.45-113.98-40.34c-27.88-26.21-42.17-63.17-42.88-110.89-.03-2.05,1.65-3.74,3.7-3.74h101.5c1.98,0,3.63,1.56,3.68,3.54.46,17.04,4.29,30.05,11.48,39.04,7.68,9.61,18.78,14.41,33.3,14.41,13.23,0,23.47-4.26,30.74-12.81,7.25-8.53,10.88-20.91,10.88-37.14v-384.74c0-2.04,1.65-3.69,3.69-3.69h102.13Z"/>
      <path d="M676.58,697.82h-240.51c-2.2,0-3.88,1.93-3.64,4.11,2.23,20.2,9.26,35.8,21.07,46.8,12.59,11.75,28.07,17.61,46.43,17.61,26.49,0,45.15-10.84,56-32.51.63-1.25,1.89-2.07,3.29-2.07h109.47c2.45,0,4.18,2.35,3.51,4.71-6.18,21.61-16.54,41.17-31.06,58.69-15.59,18.79-35.12,33.52-58.59,44.19-23.49,10.68-49.74,16.01-78.77,16.01-35.01,0-66.18-7.47-93.49-22.41-27.33-14.94-48.67-36.28-64.04-64.04-15.37-27.75-23.05-60.19-23.05-97.34s7.57-69.58,22.73-97.34c15.15-27.75,36.39-49.09,63.72-64.04,27.32-14.94,58.69-22.41,94.13-22.41s65.32,7.26,92.21,21.77c26.89,14.52,47.92,35.22,63.08,62.12,15.15,26.9,22.73,58.27,22.73,94.13,0,9.23-.52,18.81-1.56,28.74-.2,1.86-1.78,3.28-3.65,3.28ZM565.96,636.99c2.11,0,3.77-1.78,3.66-3.88-.83-16.97-7.2-30.61-19.12-40.94-12.81-11.1-28.82-16.65-48.03-16.65s-33.84,5.34-46.43,16.01c-11.64,9.87-19.18,23.56-22.61,41.08-.44,2.27,1.29,4.39,3.6,4.39h128.92Z"/>
      <path d="M1050.92,697.82h-240.5c-2.2,0-3.89,1.93-3.64,4.12,2.24,20.19,9.26,35.79,21.07,46.79,12.59,11.75,28.07,17.61,46.43,17.61,26.48,0,45.15-10.84,56-32.51.63-1.26,1.89-2.07,3.29-2.07h109.46c2.45,0,4.19,2.36,3.52,4.72-6.18,21.61-16.53,41.17-31.06,58.68-15.59,18.79-35.12,33.52-58.59,44.19-23.49,10.68-49.74,16.01-78.77,16.01-35.01,0-66.18-7.47-93.49-22.41-27.33-14.94-48.67-36.28-64.04-64.04-15.37-27.75-23.05-60.19-23.05-97.34s7.57-69.58,22.73-97.34c15.15-27.75,36.39-49.09,63.72-64.04,27.32-14.94,58.69-22.41,94.13-22.41s65.32,7.26,92.21,21.77c26.89,14.52,47.92,35.22,63.08,62.12,15.15,26.9,22.73,58.27,22.73,94.13,0,9.23-.52,18.81-1.56,28.74-.2,1.86-1.78,3.28-3.65,3.28ZM940.3,636.99c2.11,0,3.77-1.78,3.67-3.89-.83-16.97-7.21-30.61-19.12-40.94-12.81-11.1-28.82-16.65-48.03-16.65s-33.84,5.34-46.43,16.01c-11.64,9.87-19.18,23.56-22.61,41.07-.44,2.27,1.29,4.39,3.6,4.39h128.91Z"/>
      <path d="M1225.37,503.15c18.78-10.25,40.76-15.37,65.96-15.37,29.46,0,56.13,7.47,80.05,22.41,23.9,14.95,42.8,36.29,56.67,64.04,13.87,27.76,20.81,59.98,20.81,96.7s-6.94,69.06-20.81,97.02c-13.88,27.97-32.77,49.53-56.67,64.68-23.91,15.16-50.59,22.73-80.05,22.73-24.76,0-46.64-5.12-65.64-15.37-15.42-8.32-28.1-18.6-38.04-30.86-2.15-2.66-6.47-1.07-6.47,2.35v205.43c0,2.02-1.64,3.66-3.66,3.66h-102.18c-2.02,0-3.66-1.64-3.66-3.66V496.56c0-2.02,1.64-3.66,3.66-3.66h102.18c2.02,0,3.66,1.64,3.66,3.66v35.5c0,3.44,4.36,5.01,6.5,2.31,9.89-12.51,22.46-22.92,37.69-31.23ZM1314.7,606.57c-15.16-15.58-33.84-23.37-56.03-23.37s-40.24,7.9-55.39,23.69c-15.16,15.8-22.73,37.36-22.73,64.68s7.57,48.89,22.73,64.68c15.15,15.8,33.62,23.69,55.39,23.69s40.34-8,55.71-24.01c15.37-16.01,23.06-37.67,23.06-65s-7.59-48.77-22.73-64.36Z"/>
    </g>
  </g>
</svg>