<?xml version="1.0" encoding="UTF-8"?>
<svg id="Layer_2" data-name="Layer 2" xmlns="http://www.w3.org/2000/svg" viewBox="0 0 40 34">
  <defs>
    <style>
      .cls-1 {
        fill: none;
        stroke: #000;
        stroke-linecap: round;
        stroke-linejoin: round;
        stroke-width: 2px;
      }
    </style>
  </defs>
  <g id="Layer_1-2" data-name="Layer 1">
    <g id="ui-controls-editor_loading_copy" data-name="ui-controls-editor loading copy">
      <polyline class="cls-1" points="13 17 7 23 1 17"/>
      <path class="cls-1" d="M39,17c0-8.84-7.16-16-16-16S7,8.16,7,17"/>
      <path class="cls-1" d="M37.74,23.23c.2-.48.38-.97.54-1.47"/>
      <path class="cls-1" d="M34.31,28.31c.36-.36.71-.74,1.03-1.14"/>
      <path class="cls-1" d="M29.23,31.74c.48-.2.94-.43,1.4-.67"/>
      <path class="cls-1" d="M23,33c.55,0,1.09-.03,1.64-.08"/>
      <path class="cls-1" d="M16.77,31.74c.48.2.97.38,1.47.54"/>
      <path class="cls-1" d="M11.69,28.31c.36.36.74.71,1.14,1.03"/>
    </g>
  </g>
</svg>