<?xml version="1.0" encoding="iso-8859-1"?>
<!-- Generator: Adobe Illustrator 19.0.1, SVG Export Plug-In . SVG Version: 6.00 Build 0)  -->
<svg version="1.1" xmlns="http://www.w3.org/2000/svg" xmlns:xlink="http://www.w3.org/1999/xlink" x="0px" y="0px"
	 viewBox="0 0 128 128" style="enable-background:new 0 0 128 128;" xml:space="preserve">
<g id="_x31_1">
	<path id="icon_10_" style="fill:#333333;" d="M119.403,0.955H27.701c-4.738,0-8.597,3.859-8.597,8.597v8.597H8.597
		C3.859,18.149,0,22.008,0,26.746v91.701c0,4.738,3.859,8.597,8.597,8.597h91.701c4.757,0,8.597-3.859,8.597-8.597v-4.776h10.507
		c4.757,0,8.597-3.859,8.597-8.597V9.552C128,4.814,124.16,0.955,119.403,0.955z M103.164,118.448c0,1.586-1.28,2.866-2.866,2.866
		H8.597c-1.567,0-2.866-1.28-2.866-2.866V26.746c0-1.586,1.299-2.866,2.866-2.866h91.701c1.586,0,2.866,1.28,2.866,2.866V118.448z
		 M122.269,105.075c0,1.586-1.28,2.866-2.866,2.866h-10.507V26.746c0-4.738-3.84-8.597-8.597-8.597H24.836V9.552
		c0-1.586,1.299-2.866,2.866-2.866h91.701c1.586,0,2.866,1.28,2.866,2.866V105.075z M53.931,79.006
		c-5.438,0-10.595-2.088-14.525-5.879c-0.886-0.856-1.691-1.799-2.395-2.8c-2.562-3.545-3.927-7.767-3.927-12.179
		c0-11.494,9.352-20.847,20.847-20.847c11.501,0,20.858,9.353,20.858,20.847c0,4.254-1.273,8.343-3.684,11.826
		c-0.709,1.037-1.506,2-2.358,2.853C64.823,76.806,59.557,79.006,53.931,79.006z M53.931,43.032
		c-8.335,0-15.116,6.782-15.116,15.116c0,3.2,0.991,6.261,2.864,8.853c0.519,0.739,1.086,1.403,1.709,2.006
		c2.853,2.752,6.598,4.269,10.543,4.269c4.079,0,7.897-1.593,10.75-4.487c0.618-0.618,1.186-1.306,1.703-2.062
		c1.752-2.534,2.674-5.494,2.674-8.578C69.057,49.813,62.272,43.032,53.931,43.032z M92.598,106.031H16.312
		c0-14.074,7.623-26.368,18.968-32.967c0.771,1.097,1.646,2.121,2.61,3.055c4.152,4.004,9.818,6.495,16.046,6.495
		c6.421,0,12.205-2.61,16.372-6.837c0.964-0.964,1.824-2.017,2.595-3.144C84.634,79.13,92.598,91.646,92.598,106.031z"/>
</g>
<g id="Layer_1">
</g>
</svg>
