<?xml version="1.0" encoding="UTF-8"?>
<svg id="Layer_2" data-name="Layer 2" xmlns="http://www.w3.org/2000/svg" viewBox="0 0 12.29 14">
  <g id="BeBold">
    <g id="Menu-ver.">
      <path d="M12.29,12.99V1.01c0-.55-.45-1-1-1.01h-.41c-.56,0-1.01.45-1.01,1.01v11.98c0,.56.45,1.01,1.01,1.01h.41c.55,0,1-.46,1-1.01Z"/>
      <path d="M7.35,12.99V1.01C7.35.46,6.9,0,6.35,0h-.41c-.56,0-1.01.45-1.01,1.01v11.98c0,.56.45,1.01,1.01,1.01h.41c.55,0,1-.46,1-1.01Z"/>
      <path d="M2.42,12.99V1.01C2.42.46,1.97,0,1.42,0h-.41C.45,0,0,.45,0,1.01v11.98c0,.56.45,1.01,1.01,1.01h.41c.55,0,1-.46,1-1.01Z"/>
    </g>
  </g>
</svg>