<?xml version="1.0" encoding="UTF-8"?>
<svg id="Layer_2" data-name="Layer 2" xmlns="http://www.w3.org/2000/svg" viewBox="0 0 14 12.29">
  <g id="BeBold">
    <g id="Menu-hor.">
      <path d="M12.99,0H1.01C.46,0,0,.45,0,1v.41c0,.56.45,1.01,1.01,1.01h11.98c.56,0,1.01-.45,1.01-1.01v-.41c0-.55-.46-1-1.01-1Z"/>
      <path d="M12.99,4.93H1.01C.46,4.93,0,5.38,0,5.94v.41c0,.56.45,1.01,1.01,1.01h11.98c.56,0,1.01-.45,1.01-1.01v-.41c0-.55-.46-1-1.01-1Z"/>
      <path d="M12.99,9.87H1.01c-.55,0-1,.45-1.01,1v.41c0,.56.45,1.01,1.01,1.01h11.98c.56,0,1.01-.45,1.01-1.01v-.41c0-.55-.46-1-1.01-1Z"/>
    </g>
  </g>
</svg>