<?xml version="1.0" encoding="UTF-8"?>
<svg id="Layer_2" data-name="Layer 2" xmlns="http://www.w3.org/2000/svg" viewBox="0 0 14 13.91">
  <defs>
    <style>
      .cls-1 {
        fill-rule: evenodd;
      }
    </style>
  </defs>
  <g id="BeBold">
    <path id="Search" class="cls-1" d="M9.53,1.63C7.07-.82,2.9-.51.88,2.57c-1.2,1.83-1.17,4.29.06,6.11,1.71,2.51,4.89,3.11,7.3,1.81l3.34,3.18c.36.34.93.34,1.29-.02l.86-.86c.36-.36.36-.94,0-1.3l-3.24-3.25c1.15-2.11.83-4.81-.96-6.6ZM7.87,7.86c-1.26,1.26-3.31,1.26-4.57,0-1.26-1.26-1.26-3.31,0-4.57,1.26-1.26,3.31-1.26,4.57,0,1.26,1.26,1.26,3.31,0,4.57Z"/>
  </g>
</svg>